<mxfile host="app.diagrams.net" modified="2020-08-10T12:36:08.318Z" agent="5.0 (Windows NT 10.0; Win64; x64) AppleWebKit/537.36 (KHTML, like Gecko) Chrome/84.0.4147.105 Safari/537.36" etag="bEKfRta2DL1VXOcTcH6y" version="13.6.2" type="github">
  <diagram id="kadHFnLxjQ3yYRlNPp_8" name="Page-1">
    <mxGraphModel dx="1117" dy="1014" grid="1" gridSize="10" guides="1" tooltips="1" connect="1" arrows="1" fold="1" page="1" pageScale="1" pageWidth="850" pageHeight="1100" math="0" shadow="0">
      <root>
        <mxCell id="0" />
        <mxCell id="1" parent="0" />
        <mxCell id="nspwu7ugIolKWqw-Yoy7-22" value="&lt;span style=&quot;font-family: fixemoji, &amp;quot;roboto mono&amp;quot;, sans-serif; font-size: 16px; text-align: left; background-color: rgb(246, 246, 246);&quot;&gt;Microsoft SQL Server&lt;/span&gt;" style="rounded=1;whiteSpace=wrap;html=1;glass=0;shadow=1;fillColor=#e1d5e7;strokeColor=#9673a6;" parent="1" vertex="1">
          <mxGeometry x="290" y="20" width="120" height="60" as="geometry" />
        </mxCell>
        <mxCell id="nspwu7ugIolKWqw-Yoy7-23" value="&lt;span style=&quot;font-family: fixemoji, &amp;quot;roboto mono&amp;quot;, sans-serif; font-size: 16px; text-align: left; background-color: rgb(246, 246, 246);&quot;&gt;.NET&lt;/span&gt;" style="rounded=1;whiteSpace=wrap;html=1;glass=0;shadow=1;fillColor=#e1d5e7;strokeColor=#9673a6;" parent="1" vertex="1">
          <mxGeometry x="425" y="20" width="120" height="60" as="geometry" />
        </mxCell>
        <mxCell id="nspwu7ugIolKWqw-Yoy7-24" value="&lt;span style=&quot;font-family: fixemoji, &amp;quot;roboto mono&amp;quot;, sans-serif; font-size: 16px; text-align: left; background-color: rgb(246, 246, 246);&quot;&gt;ASP.NET&lt;/span&gt;" style="rounded=1;whiteSpace=wrap;html=1;glass=0;shadow=1;fillColor=#d5e8d4;strokeColor=#82b366;" parent="1" vertex="1">
          <mxGeometry x="160" y="20" width="120" height="60" as="geometry" />
        </mxCell>
        <mxCell id="nspwu7ugIolKWqw-Yoy7-25" value="&lt;span style=&quot;font-family: fixemoji, &amp;quot;roboto mono&amp;quot;, sans-serif; font-size: 16px; text-align: left; background-color: rgb(246, 246, 246);&quot;&gt;ASP.NET MVC&lt;/span&gt;" style="rounded=1;whiteSpace=wrap;html=1;glass=0;shadow=1;fillColor=#e1d5e7;strokeColor=#9673a6;" parent="1" vertex="1">
          <mxGeometry x="160" y="100" width="120" height="60" as="geometry" />
        </mxCell>
        <mxCell id="nspwu7ugIolKWqw-Yoy7-26" value="&lt;span style=&quot;font-family: &amp;#34;fixemoji&amp;#34; , &amp;#34;roboto mono&amp;#34; , sans-serif ; font-size: 16px ; text-align: left ; background-color: rgb(246 , 246 , 246)&quot;&gt;SSRS&lt;/span&gt;" style="rounded=1;whiteSpace=wrap;html=1;glass=0;shadow=1;fontColor=#333333;fillColor=#f5f5f5;strokeColor=none;" parent="1" vertex="1">
          <mxGeometry x="660" y="1000" width="120" height="60" as="geometry" />
        </mxCell>
        <mxCell id="nspwu7ugIolKWqw-Yoy7-27" value="&lt;span style=&quot;font-family: &amp;#34;fixemoji&amp;#34; , &amp;#34;roboto mono&amp;#34; , sans-serif ; font-size: 16px ; text-align: left ; background-color: rgb(246 , 246 , 246)&quot;&gt;JQUERY - CSS&lt;/span&gt;" style="rounded=1;whiteSpace=wrap;html=1;glass=0;shadow=1;fillColor=#d5e8d4;strokeColor=#82b366;" parent="1" vertex="1">
          <mxGeometry x="710" y="370" width="120" height="60" as="geometry" />
        </mxCell>
        <mxCell id="nspwu7ugIolKWqw-Yoy7-28" value="&lt;span style=&quot;font-family: &amp;#34;fixemoji&amp;#34; , &amp;#34;roboto mono&amp;#34; , sans-serif ; font-size: 16px ; text-align: left ; background-color: rgb(246 , 246 , 246)&quot;&gt;AJAX&lt;/span&gt;" style="rounded=1;whiteSpace=wrap;html=1;glass=0;shadow=1;fillColor=#d5e8d4;strokeColor=#82b366;" parent="1" vertex="1">
          <mxGeometry x="710" y="440" width="120" height="60" as="geometry" />
        </mxCell>
        <mxCell id="nspwu7ugIolKWqw-Yoy7-29" value="&lt;div style=&quot;text-align: left&quot;&gt;&lt;font face=&quot;fixemoji, roboto mono, sans-serif&quot;&gt;&lt;span style=&quot;font-size: 16px ; background-color: rgb(246 , 246 , 246)&quot;&gt;BOOTSTRAP&lt;/span&gt;&lt;/font&gt;&lt;/div&gt;" style="rounded=1;whiteSpace=wrap;html=1;glass=0;shadow=1;fillColor=#fff2cc;strokeColor=#d6b656;" parent="1" vertex="1">
          <mxGeometry x="710" y="300" width="120" height="60" as="geometry" />
        </mxCell>
        <mxCell id="nspwu7ugIolKWqw-Yoy7-30" value="&lt;span style=&quot;font-family: &amp;#34;fixemoji&amp;#34; , &amp;#34;roboto mono&amp;#34; , sans-serif ; font-size: 16px ; text-align: left ; background-color: rgb(246 , 246 , 246)&quot;&gt;C#&lt;/span&gt;" style="rounded=1;whiteSpace=wrap;html=1;glass=0;shadow=1;fillColor=#e1d5e7;strokeColor=#9673a6;" parent="1" vertex="1">
          <mxGeometry x="560" y="20" width="120" height="60" as="geometry" />
        </mxCell>
        <mxCell id="nspwu7ugIolKWqw-Yoy7-31" value="&lt;span style=&quot;font-family: &amp;#34;fixemoji&amp;#34; , &amp;#34;roboto mono&amp;#34; , sans-serif ; font-size: 16px ; text-align: left ; background-color: rgb(246 , 246 , 246)&quot;&gt;SSIS&lt;/span&gt;" style="rounded=1;whiteSpace=wrap;html=1;glass=0;shadow=1;fontColor=#333333;fillColor=#f5f5f5;strokeColor=none;" parent="1" vertex="1">
          <mxGeometry x="650" y="880" width="120" height="60" as="geometry" />
        </mxCell>
        <mxCell id="nspwu7ugIolKWqw-Yoy7-32" value="&lt;div style=&quot;text-align: left&quot;&gt;&lt;font face=&quot;fixemoji, roboto mono, sans-serif&quot;&gt;&lt;span style=&quot;font-size: 16px ; background-color: rgb(246 , 246 , 246)&quot;&gt;JAVASCRIPT&lt;/span&gt;&lt;/font&gt;&lt;/div&gt;" style="rounded=1;whiteSpace=wrap;html=1;glass=0;shadow=1;fillColor=#d5e8d4;strokeColor=#82b366;" parent="1" vertex="1">
          <mxGeometry x="710" y="90" width="120" height="60" as="geometry" />
        </mxCell>
        <mxCell id="nspwu7ugIolKWqw-Yoy7-33" value="&lt;div style=&quot;text-align: left&quot;&gt;&lt;font face=&quot;fixemoji, roboto mono, sans-serif&quot;&gt;&lt;span style=&quot;font-size: 16px ; background-color: rgb(246 , 246 , 246)&quot;&gt;ADO.NET&lt;/span&gt;&lt;/font&gt;&lt;/div&gt;" style="rounded=1;whiteSpace=wrap;html=1;glass=0;shadow=1;fillColor=#d5e8d4;strokeColor=#82b366;" parent="1" vertex="1">
          <mxGeometry x="560" y="90" width="120" height="60" as="geometry" />
        </mxCell>
        <mxCell id="nspwu7ugIolKWqw-Yoy7-34" value="&lt;div style=&quot;text-align: left&quot;&gt;&lt;span style=&quot;font-family: &amp;#34;fixemoji&amp;#34; , &amp;#34;roboto mono&amp;#34; , sans-serif ; font-size: 16px ; background-color: rgb(246 , 246 , 246)&quot;&gt;RAZOR&lt;/span&gt;&lt;br&gt;&lt;/div&gt;" style="rounded=1;whiteSpace=wrap;html=1;glass=0;shadow=1;fillColor=#d5e8d4;strokeColor=#82b366;" parent="1" vertex="1">
          <mxGeometry x="710" y="230" width="120" height="60" as="geometry" />
        </mxCell>
        <mxCell id="nspwu7ugIolKWqw-Yoy7-35" value="&lt;div style=&quot;text-align: left&quot;&gt;&lt;span style=&quot;font-family: &amp;#34;fixemoji&amp;#34; , &amp;#34;roboto mono&amp;#34; , sans-serif ; font-size: 16px ; background-color: rgb(246 , 246 , 246)&quot;&gt;CSS&lt;/span&gt;&lt;br&gt;&lt;/div&gt;" style="rounded=1;whiteSpace=wrap;html=1;glass=0;shadow=1;fillColor=#d5e8d4;strokeColor=#82b366;" parent="1" vertex="1">
          <mxGeometry x="710" y="20" width="120" height="60" as="geometry" />
        </mxCell>
        <mxCell id="nspwu7ugIolKWqw-Yoy7-36" value="&lt;div style=&quot;text-align: left&quot;&gt;&lt;span style=&quot;font-family: &amp;#34;fixemoji&amp;#34; , &amp;#34;roboto mono&amp;#34; , sans-serif ; font-size: 16px ; background-color: rgb(246 , 246 , 246)&quot;&gt;HTML&lt;/span&gt;&lt;br&gt;&lt;/div&gt;" style="rounded=1;whiteSpace=wrap;html=1;glass=0;shadow=1;fillColor=#d5e8d4;strokeColor=#82b366;" parent="1" vertex="1">
          <mxGeometry x="710" y="160" width="120" height="60" as="geometry" />
        </mxCell>
        <mxCell id="nspwu7ugIolKWqw-Yoy7-37" value="&lt;div style=&quot;text-align: left&quot;&gt;&lt;span style=&quot;font-family: &amp;#34;fixemoji&amp;#34; , &amp;#34;roboto mono&amp;#34; , sans-serif ; font-size: 16px ; background-color: rgb(246 , 246 , 246)&quot;&gt;LINQ&lt;/span&gt;&lt;br&gt;&lt;/div&gt;" style="rounded=1;whiteSpace=wrap;html=1;glass=0;shadow=1;fontColor=#333333;fillColor=#f5f5f5;strokeColor=none;" parent="1" vertex="1">
          <mxGeometry x="670" y="740" width="120" height="60" as="geometry" />
        </mxCell>
        <mxCell id="nspwu7ugIolKWqw-Yoy7-38" value="&lt;div style=&quot;text-align: left&quot;&gt;&lt;span style=&quot;font-family: &amp;#34;fixemoji&amp;#34; , &amp;#34;roboto mono&amp;#34; , sans-serif ; font-size: 16px ; background-color: rgb(246 , 246 , 246)&quot;&gt;WEBAPI&lt;/span&gt;&lt;br&gt;&lt;/div&gt;" style="rounded=1;whiteSpace=wrap;html=1;glass=0;shadow=1;fillColor=#d5e8d4;strokeColor=#82b366;" parent="1" vertex="1">
          <mxGeometry x="20" y="20" width="120" height="60" as="geometry" />
        </mxCell>
        <mxCell id="nspwu7ugIolKWqw-Yoy7-39" value="&lt;div style=&quot;text-align: left&quot;&gt;&lt;span style=&quot;font-family: &amp;#34;fixemoji&amp;#34; , &amp;#34;roboto mono&amp;#34; , sans-serif ; font-size: 16px ; background-color: rgb(246 , 246 , 246)&quot;&gt;ASP.NET CORE&lt;/span&gt;&lt;br&gt;&lt;/div&gt;" style="rounded=1;whiteSpace=wrap;html=1;glass=0;shadow=1;fontColor=#333333;fillColor=#f5f5f5;strokeColor=none;" parent="1" vertex="1">
          <mxGeometry x="180" y="720" width="120" height="60" as="geometry" />
        </mxCell>
        <mxCell id="nspwu7ugIolKWqw-Yoy7-40" value="&lt;div style=&quot;text-align: left&quot;&gt;&lt;span style=&quot;font-family: &amp;#34;fixemoji&amp;#34; , &amp;#34;roboto mono&amp;#34; , sans-serif ; font-size: 16px ; background-color: rgb(246 , 246 , 246)&quot;&gt;ANGULAR&lt;/span&gt;&lt;br&gt;&lt;/div&gt;" style="rounded=1;whiteSpace=wrap;html=1;glass=0;shadow=1;fontColor=#333333;fillColor=#f5f5f5;strokeColor=none;" parent="1" vertex="1">
          <mxGeometry x="425" y="540" width="120" height="60" as="geometry" />
        </mxCell>
        <mxCell id="nspwu7ugIolKWqw-Yoy7-41" value="&lt;div style=&quot;text-align: left&quot;&gt;&lt;span style=&quot;font-family: &amp;#34;fixemoji&amp;#34; , &amp;#34;roboto mono&amp;#34; , sans-serif ; font-size: 16px ; background-color: rgb(246 , 246 , 246)&quot;&gt;AZURE&lt;/span&gt;&lt;br&gt;&lt;/div&gt;" style="rounded=1;whiteSpace=wrap;html=1;glass=0;shadow=1;fontColor=#333333;fillColor=#f5f5f5;strokeColor=none;" parent="1" vertex="1">
          <mxGeometry x="490" y="740" width="120" height="60" as="geometry" />
        </mxCell>
        <mxCell id="nspwu7ugIolKWqw-Yoy7-42" value="&lt;div style=&quot;text-align: left&quot;&gt;&lt;span style=&quot;font-family: &amp;#34;fixemoji&amp;#34; , &amp;#34;roboto mono&amp;#34; , sans-serif ; font-size: 16px ; background-color: rgb(246 , 246 , 246)&quot;&gt;XAMRIN&lt;/span&gt;&lt;br&gt;&lt;/div&gt;" style="rounded=1;whiteSpace=wrap;html=1;glass=0;shadow=1;fontColor=#333333;fillColor=#f5f5f5;strokeColor=none;" parent="1" vertex="1">
          <mxGeometry x="460" y="950" width="120" height="60" as="geometry" />
        </mxCell>
        <mxCell id="nspwu7ugIolKWqw-Yoy7-45" value="&lt;div style=&quot;text-align: left&quot;&gt;&lt;span style=&quot;font-family: &amp;#34;fixemoji&amp;#34; , &amp;#34;roboto mono&amp;#34; , sans-serif ; font-size: 16px ; background-color: rgb(246 , 246 , 246)&quot;&gt;Microservices&lt;/span&gt;&lt;br&gt;&lt;/div&gt;" style="rounded=1;whiteSpace=wrap;html=1;glass=0;shadow=1;fontColor=#333333;fillColor=#f5f5f5;strokeColor=none;" parent="1" vertex="1">
          <mxGeometry x="180" y="800" width="120" height="60" as="geometry" />
        </mxCell>
        <mxCell id="nspwu7ugIolKWqw-Yoy7-46" value="&lt;div style=&quot;text-align: left&quot;&gt;&lt;span style=&quot;font-family: &amp;#34;fixemoji&amp;#34; , &amp;#34;roboto mono&amp;#34; , sans-serif ; font-size: 16px ; background-color: rgb(246 , 246 , 246)&quot;&gt;ENTITY FRAMEWORK&lt;/span&gt;&lt;br&gt;&lt;/div&gt;" style="rounded=1;whiteSpace=wrap;html=1;glass=0;shadow=1;fillColor=#d5e8d4;strokeColor=#82b366;" parent="1" vertex="1">
          <mxGeometry x="560" y="160" width="120" height="60" as="geometry" />
        </mxCell>
      </root>
    </mxGraphModel>
  </diagram>
</mxfile>
